<svg width="553" height="550" viewBox="0 0 553 550" fill="none" xmlns="http://www.w3.org/2000/svg">
<path d="M220.492 211.199C185.222 230.199 180.825 275.533 182.492 299.699C198.992 242.199 239.222 215.699 296.492 222.699C313.345 224.759 350.722 228.822 369.992 222.699C387.825 217.033 427.592 195.499 443.992 154.699C456.869 122.664 457.436 90.7936 455.23 71.2371C454.6 65.6488 447.86 63.852 443.701 67.6379C414.944 93.8189 382.842 96.7898 353.992 102.199C302.883 111.782 285.992 155.533 283.492 174.199C337.092 171.799 388.492 141.533 407.492 126.699C379.492 196.199 260.884 189.44 220.492 211.199Z" fill="#86B13E"/>
<path d="M221.089 32.8641C240.398 -11.0535 302.751 -10.9249 321.878 33.0721L347.622 92.2918C320.973 98.3875 303.065 112.928 291.414 128.595L280.088 101.911C276.973 94.5717 266.558 94.6086 263.495 101.97L223.667 197.675C220.667 198.852 217.855 200.125 215.275 201.514C194.355 212.784 183.011 231.7 177.154 250.189C171.322 268.598 170.62 287.433 171.518 300.456C171.823 304.875 172.459 310.135 169.223 313.161C157.951 323.699 150.237 323.699 137.873 323.699H107.01C100.513 323.699 96.1561 317.025 98.7711 311.077L221.089 32.8641Z" fill="#141413"/>
<path d="M442.75 311.111C445.334 317.055 440.977 323.699 434.496 323.699H407.318C387.253 323.699 369.131 311.704 361.292 293.234L337.384 236.907C349.877 237.114 363.209 236.396 373.323 233.182C380.646 230.855 391.265 226.159 402.638 218.844L442.75 311.111Z" fill="#141413"/>
<path d="M441.584 496.635C441.584 485.889 443.499 476.501 447.328 468.472C451.281 460.443 456.592 454.267 463.262 449.944C470.056 445.62 477.591 443.459 485.867 443.459C493.031 443.459 499.207 444.879 504.395 447.72C509.583 450.561 513.597 454.391 516.438 459.208V444.756H552.753V548.699H516.438V534.247C513.597 539.065 509.521 542.894 504.21 545.735C499.022 548.576 492.907 549.996 485.867 549.996C477.591 549.996 470.056 547.835 463.262 543.511C456.592 539.188 451.281 533.012 447.328 524.983C443.499 516.831 441.584 507.381 441.584 496.635ZM516.438 496.635C516.438 489.965 514.585 484.715 510.88 480.886C507.298 477.057 502.851 475.142 497.539 475.142C492.104 475.142 487.596 477.057 484.014 480.886C480.432 484.592 478.641 489.841 478.641 496.635C478.641 503.305 480.432 508.616 484.014 512.569C487.596 516.398 492.104 518.313 497.539 518.313C502.851 518.313 507.298 516.398 510.88 512.569C514.585 508.74 516.438 503.429 516.438 496.635Z" fill="#141413"/>
<path d="M406.517 463.099C410.593 457.17 415.534 452.476 421.339 449.017C427.145 445.559 433.382 443.829 440.053 443.829V482.553H429.862C421.957 482.553 416.089 484.097 412.26 487.186C408.431 490.274 406.517 495.647 406.517 503.305V548.699H370.201V444.756H406.517V463.099Z" fill="#141413"/>
<path d="M306.327 549.996C295.951 549.996 286.625 547.835 278.349 543.511C270.196 539.188 263.773 533.012 259.08 524.983C254.386 516.954 252.039 507.505 252.039 496.635C252.039 485.889 254.386 476.501 259.08 468.472C263.897 460.443 270.382 454.267 278.534 449.944C286.81 445.62 296.136 443.459 306.512 443.459C316.888 443.459 326.152 445.62 334.304 449.944C342.58 454.267 349.065 460.443 353.759 468.472C358.576 476.501 360.985 485.889 360.985 496.635C360.985 507.381 358.576 516.831 353.759 524.983C349.065 533.012 342.58 539.188 334.304 543.511C326.028 547.835 316.702 549.996 306.327 549.996ZM306.327 518.498C311.391 518.498 315.591 516.645 318.926 512.94C322.384 509.111 324.114 503.676 324.114 496.635C324.114 489.594 322.384 484.221 318.926 480.515C315.591 476.81 311.453 474.957 306.512 474.957C301.571 474.957 297.433 476.81 294.098 480.515C290.763 484.221 289.095 489.594 289.095 496.635C289.095 503.799 290.701 509.234 293.913 512.94C297.124 516.645 301.262 518.498 306.327 518.498Z" fill="#141413"/>
<path d="M193.042 514.422L212.497 444.756H251.221L215.462 548.699H170.253L134.493 444.756H173.217L193.042 514.422Z" fill="#141413"/>
<path d="M91.5294 527.392H45.2089L38.1682 548.699H0L47.6175 418.075H89.4913L136.924 548.699H98.5702L91.5294 527.392ZM82.4506 499.599L68.3692 457.355L54.473 499.599H82.4506Z" fill="#141413"/>
</svg>
