<svg width="359" height="324" viewBox="0 0 359 324" fill="none" xmlns="http://www.w3.org/2000/svg">
<path d="M122.492 211.199C87.2219 230.199 82.8254 275.533 84.492 299.699C100.992 242.199 141.222 215.699 198.492 222.699C215.345 224.759 252.722 228.822 271.992 222.699C289.825 217.033 329.592 195.499 345.992 154.699C358.869 122.664 359.436 90.7936 357.23 71.2371C356.6 65.6488 349.86 63.852 345.701 67.6379C316.944 93.8189 284.842 96.7898 255.992 102.199C204.883 111.782 187.992 155.533 185.492 174.199C239.092 171.799 290.492 141.533 309.492 126.699C281.492 196.199 162.884 189.44 122.492 211.199Z" fill="#86B13E"/>
<path d="M123.089 32.8641C142.398 -11.0535 204.751 -10.9249 223.878 33.0721L249.622 92.2918C222.973 98.3875 205.065 112.928 193.414 128.595L182.088 101.911C178.973 94.5717 168.558 94.6086 165.495 101.97L125.667 197.675C122.668 198.852 119.855 200.125 117.275 201.514C96.3549 212.784 85.0111 231.7 79.1539 250.189C73.3222 268.598 72.62 287.433 73.5181 300.456C73.8229 304.875 74.4593 310.135 71.2234 313.161C59.9511 323.699 52.2369 323.699 39.8726 323.699H9.01032C2.51296 323.699 -1.84392 317.025 0.771066 311.077L123.089 32.8641Z" fill="#141413"/>
<path d="M344.75 311.111C347.334 317.055 342.977 323.699 336.496 323.699H309.318C289.253 323.699 271.131 311.704 263.292 293.234L239.384 236.907C251.877 237.114 265.209 236.396 275.323 233.182C282.646 230.855 293.265 226.159 304.638 218.844L344.75 311.111Z" fill="#141413"/>
</svg>
